HIERARCHY
ROOT Hips
{
	OFFSET 0.000000 0.000000 0.000000
	CHANNELS 6 Xposition Yposition Zposition Xrotation Yrotation Zrotation
	JOINT Chest
	{
		OFFSET 0.000000 0.009282 11.569106
		CHANNELS 6 Xposition Yposition Zposition Xrotation Yrotation Zrotation
		JOINT Chest2
		{
			OFFSET 0.000000 -0.016863 9.269641
			CHANNELS 6 Xposition Yposition Zposition Xrotation Yrotation Zrotation
			JOINT Chest3
			{
				OFFSET 0.000000 0.000000 8.374491
				CHANNELS 6 Xposition Yposition Zposition Xrotation Yrotation Zrotation
				JOINT Chest4
				{
					OFFSET 0.000000 0.000000 8.374493
					CHANNELS 6 Xposition Yposition Zposition Xrotation Yrotation Zrotation
					JOINT Neck
					{
						OFFSET 0.000000 -0.000001 12.152554
						CHANNELS 6 Xposition Yposition Zposition Xrotation Yrotation Zrotation
						JOINT Head
						{
							OFFSET 0.000000 -0.040100 7.802319
							CHANNELS 6 Xposition Yposition Zposition Xrotation Yrotation Zrotation
							End Site
							{
								OFFSET 0.000000 -0.020946 14.853096
							}
						}
					}
					JOINT RightCollar
					{
						OFFSET -2.894404 0.000000 6.791374
						CHANNELS 6 Xposition Yposition Zposition Xrotation Yrotation Zrotation
						JOINT RightShoulder
						{
							OFFSET -13.574684 0.000000 0.000000
							CHANNELS 6 Xposition Yposition Zposition Xrotation Yrotation Zrotation
							JOINT RightElbow
							{
								OFFSET -23.923903 0.000000 0.000000
								CHANNELS 6 Xposition Yposition Zposition Xrotation Yrotation Zrotation
								JOINT RightWrist
								{
									OFFSET -19.846718 -0.012765 0.000000
									CHANNELS 6 Xposition Yposition Zposition Xrotation Yrotation Zrotation
									End Site
									{
										OFFSET -14.973145 0.000000 0.000000
									}
								}
							}
						}
					}
					JOINT LeftCollar
					{
						OFFSET 2.894404 0.000000 6.791374
						CHANNELS 6 Xposition Yposition Zposition Xrotation Yrotation Zrotation
						JOINT LeftShoulder
						{
							OFFSET 13.574684 0.000000 0.000000
							CHANNELS 6 Xposition Yposition Zposition Xrotation Yrotation Zrotation
							JOINT LeftElbow
							{
								OFFSET 23.923903 0.000000 0.000000
								CHANNELS 6 Xposition Yposition Zposition Xrotation Yrotation Zrotation
								JOINT LeftWrist
								{
									OFFSET 19.846718 -0.012765 0.000000
									CHANNELS 6 Xposition Yposition Zposition Xrotation Yrotation Zrotation
									End Site
									{
										OFFSET 14.973145 0.000000 0.000000
									}
								}
							}
						}
					}
				}
			}
		}
	}
	JOINT RightHip
	{
		OFFSET -9.469263 -0.004642 0.045487
		CHANNELS 6 Xposition Yposition Zposition Xrotation Yrotation Zrotation
		JOINT RightKnee
		{
			OFFSET 0.000000 -0.002666 -40.478676
			CHANNELS 6 Xposition Yposition Zposition Xrotation Yrotation Zrotation
			JOINT RightAnkle
			{
				OFFSET 0.000000 -0.049110 -35.224068
				CHANNELS 6 Xposition Yposition Zposition Xrotation Yrotation Zrotation
				JOINT RightToe
				{
					OFFSET 0.000000 -12.539530 -6.151390
					CHANNELS 6 Xposition Yposition Zposition Xrotation Yrotation Zrotation
					End Site
					{
						OFFSET 0.000000 -5.044995 -1.291870
					}
				}
			}
		}
	}
	JOINT LeftHip
	{
		OFFSET 9.469263 -0.004642 0.045487
		CHANNELS 6 Xposition Yposition Zposition Xrotation Yrotation Zrotation
		JOINT LeftKnee
		{
			OFFSET 0.000000 -0.002666 -40.478676
			CHANNELS 6 Xposition Yposition Zposition Xrotation Yrotation Zrotation
			JOINT LeftAnkle
			{
				OFFSET 0.000000 -0.049110 -35.224068
				CHANNELS 6 Xposition Yposition Zposition Xrotation Yrotation Zrotation
				JOINT LeftToe
				{
					OFFSET 0.000000 -12.539530 -6.151390
					CHANNELS 6 Xposition Yposition Zposition Xrotation Yrotation Zrotation
					End Site
					{
						OFFSET 0.000000 -5.044995 -1.291870
					}
				}
			}
		}
	}
}
MOTION
Frames: 4
Frame Time: 0.016667
-11.784098 -4.937037 82.948044 0.609019 2.024598 -109.255242 0.000000 0.009282 11.569109 -2.709214 -2.726194 -2.582919 0.000000 -0.016862 9.269641 -1.190012 -1.231469 -1.162255 -0.000001 -0.000000 8.374485 -1.190012 -1.231469 -1.162257 -0.000000 0.000001 8.374502 -0.890137 -0.925874 -0.869267 0.000001 -0.000002 12.152561 16.960589 3.612362 15.276703 0.000000 -0.040098 7.802299 -4.017579 1.423949 29.082095 -2.894406 0.000002 6.791368 -6.515428 -8.518649 -8.586692 -13.574684 0.000003 0.000007 -42.330435 -51.636206 -36.561091 -23.923903 0.000002 -0.000000 -1.067403 8.892315 11.986637 -19.846724 -0.012763 0.000004 -49.149857 62.162528 70.609089 2.894405 -0.000001 6.791378 0.129468 6.787896 -12.027139 13.574682 -0.000003 -0.000009 -68.872404 43.429471 -8.688725 23.923903 -0.000003 -0.000003 -39.095200 37.332219 -42.481198 19.846704 -0.012760 0.000005 -48.075338 -48.200631 -23.080194 -9.469263 -0.004642 0.045492 6.858086 -0.527375 0.719228 0.000112 -0.002667 -40.478672 0.007316 0.361622 -2.388619 0.000139 -0.049124 -35.224277 -4.461121 0.213391 -3.002845 0.000004 -12.539530 -6.151390 -0.028424 0.014600 -0.087754 9.469265 -0.004642 0.045486 6.817616 1.301459 1.630901 -0.000091 -0.002666 -40.478722 -0.951914 -0.485763 1.936959 0.000039 -0.049116 -35.224220 -3.415488 -0.398137 -0.789616 -0.000004 -12.539528 -6.151382 0.034938 -0.039638 0.093025 
-11.790373 -4.936236 82.946785 0.618092 2.054036 -109.291783 -0.000001 0.009282 11.569092 -2.675643 -2.714802 -2.570621 -0.000000 -0.016862 9.269629 -1.174738 -1.226094 -1.155855 -0.000001 0.000002 8.374485 -1.174740 -1.226094 -1.155864 -0.000001 -0.000000 8.374500 -0.878706 -0.921800 -0.864507 0.000001 -0.000000 12.152556 16.941634 3.613921 15.292626 -0.000000 -0.040100 7.802304 -4.050453 1.417726 29.111943 -2.894405 0.000003 6.791371 -6.488186 -8.508202 -8.594640 -13.574688 -0.000002 -0.000002 -42.314268 -51.671180 -36.513051 -23.923910 -0.000003 -0.000006 -0.921381 8.957172 12.030845 -19.846720 -0.012762 0.000002 -49.091428 62.175656 70.579610 2.894404 0.000002 6.791368 0.144361 6.757702 -12.049959 13.574685 -0.000003 -0.000004 -68.792668 43.408192 -8.746558 23.923904 0.000007 -0.000001 -39.211071 37.147780 -42.274093 19.846703 -0.012769 -0.000005 -48.017435 -47.917704 -23.009400 -9.469263 -0.004644 0.045474 6.884928 -0.517229 0.718588 0.000111 -0.002668 -40.478672 0.014890 0.355923 -2.365447 0.000140 -0.049125 -35.224270 -4.467475 0.212684 -3.004380 0.000004 -12.539531 -6.151378 -0.024346 0.020909 -0.088978 9.469262 -0.004642 0.045481 6.850154 1.302376 1.647831 -0.000092 -0.002668 -40.478718 -0.935382 -0.480406 1.934210 0.000038 -0.049119 -35.224228 -3.433200 -0.403886 -0.776631 -0.000007 -12.539533 -6.151377 0.035749 -0.037663 0.093261 
-11.792990 -4.936083 82.945282 0.633236 2.089734 -109.338624 0.000001 0.009282 11.569097 -2.630744 -2.703156 -2.547487 -0.000000 -0.016862 9.269627 -1.155142 -1.220971 -1.144596 -0.000000 0.000001 8.374496 -1.155142 -1.220971 -1.144594 -0.000002 0.000002 8.374498 -0.864040 -0.917900 -0.856108 -0.000001 -0.000005 12.152552 16.920282 3.614640 15.308815 0.000001 -0.040097 7.802299 -4.087527 1.409367 29.142047 -2.894405 -0.000001 6.791376 -6.464164 -8.506668 -8.601051 -13.574686 -0.000000 -0.000003 -42.249894 -51.712120 -36.417974 -23.923906 0.000004 -0.000000 -0.891184 8.952752 12.077427 -19.846706 -0.012767 -0.000001 -48.868976 62.190860 70.330608 2.894404 -0.000003 6.791381 0.161273 6.698960 -12.079218 13.574682 0.000003 0.000001 -68.687326 43.394716 -8.833584 23.923899 -0.000013 0.000001 -39.414133 36.983535 -42.040914 19.846725 -0.012770 -0.000010 -47.906838 -47.827727 -22.947504 -9.469263 -0.004643 0.045481 6.917923 -0.510814 0.724060 0.000111 -0.002668 -40.478676 0.018138 0.355702 -2.342110 0.000138 -0.049127 -35.224270 -4.468569 0.205558 -2.990751 0.000005 -12.539532 -6.151382 -0.020135 0.027805 -0.089102 9.469265 -0.004642 0.045477 6.891409 1.303631 1.648111 -0.000092 -0.002668 -40.478714 -0.924413 -0.478981 1.956188 0.000036 -0.049120 -35.224220 -3.448453 -0.409140 -0.751942 -0.000003 -12.539535 -6.151390 0.038216 -0.036017 0.093170 
-11.795345 -4.937767 82.943787 0.652151 2.129651 -109.403819 0.000000 0.009282 11.569095 -2.580527 -2.694967 -2.512537 0.000000 -0.016861 9.269641 -1.133772 -1.217595 -1.127780 0.000000 -0.000003 8.374481 -1.133772 -1.217595 -1.127780 -0.000001 -0.000003 8.374493 -0.848054 -0.915296 -0.843549 -0.000000 -0.000008 12.152557 16.900111 3.615586 15.325818 -0.000001 -0.040106 7.802280 -4.122334 1.401419 29.173698 -2.894403 -0.000004 6.791384 -6.459665 -8.502881 -8.606477 -13.574689 0.000001 -0.000001 -42.171657 -51.767998 -36.322447 -23.923912 0.000002 0.000001 -0.948399 8.954130 12.119308 -19.846706 -0.012768 0.000003 -48.657755 62.204944 70.081764 2.894404 -0.000005 6.791384 0.190067 6.628575 -12.123735 13.574686 0.000000 0.000002 -68.581308 43.395767 -8.959076 23.923897 -0.000012 0.000000 -39.694560 36.818312 -41.760292 19.846724 -0.012767 -0.000001 -47.888837 -47.840824 -22.964276 -9.469263 -0.004642 0.045483 6.956082 -0.503899 0.733426 0.000109 -0.002667 -40.478668 0.015969 0.355655 -2.317974 0.000136 -0.049125 -35.224270 -4.465664 0.196785 -2.961674 0.000004 -12.539532 -6.151387 -0.015143 0.033651 -0.089615 9.469264 -0.004641 0.045483 6.943233 1.309034 1.663814 -0.000092 -0.002667 -40.478722 -0.921906 -0.484684 1.986330 0.000032 -0.049118 -35.224232 -3.461179 -0.410617 -0.731529 -0.000005 -12.539531 -6.151377 0.040447 -0.034897 0.092714 
